<?xml version="1.0" standalone="no"?>
<!DOCTYPE svg PUBLIC "-//W3C//DTD SVG 20010904//EN"
 "http://www.w3.org/TR/2001/REC-SVG-20010904/DTD/svg10.dtd">
<svg version="1.0" xmlns="http://www.w3.org/2000/svg"
 width="445.000000pt" height="327.000000pt" viewBox="0 0 445.000000 327.000000"
 preserveAspectRatio="xMidYMid meet">

<g transform="translate(0.000000,327.000000) scale(0.100000,-0.100000)"
fill="#000000" stroke="none">
<path d="M801 3018 c1 -139 2 -142 14 -89 16 62 54 107 105 122 21 6 129 9
270 7 l235 -3 0 -65 0 -65 -197 -5 c-192 -5 -197 -6 -224 -30 -43 -40 -54 -79
-54 -195 l0 -105 -65 0 c-65 0 -65 0 -84 38 -25 48 -76 96 -125 116 -51 21
-131 20 -181 -3 -55 -25 -122 -100 -131 -146 -5 -30 -13 -39 -50 -57 -57 -27
-142 -110 -177 -176 -54 -99 -57 -137 -57 -734 0 -368 4 -564 11 -600 28 -131
121 -248 244 -309 l70 -34 532 -3 533 -3 0 41 0 40 -485 0 c-500 0 -552 3
-628 42 -82 41 -166 152 -182 241 l-7 37 347 0 347 0 61 -56 c135 -123 304
-195 462 -197 l90 -2 3 41 3 41 -93 5 c-206 12 -387 120 -508 304 -74 113 -95
192 -95 354 0 122 3 142 28 209 58 160 181 298 329 370 81 40 190 70 256 71
l33 0 -3 -77 -3 -78 -64 -8 c-131 -16 -267 -104 -342 -220 -131 -202 -104
-451 66 -623 91 -93 211 -144 334 -144 l61 0 0 44 0 43 -72 5 c-340 23 -501
425 -271 678 65 73 189 130 280 130 10 0 13 -43 13 -207 0 -197 -2 -210 -23
-247 -29 -51 -64 -76 -115 -83 -23 -3 -42 -10 -42 -14 0 -5 117 -9 260 -9 143
0 260 4 260 9 0 4 -21 11 -46 14 -52 5 -89 29 -121 77 l-23 33 0 478 c0 356 3
479 12 479 20 0 116 -80 168 -140 55 -63 157 -221 166 -256 3 -12 -2 -80 -10
-150 -16 -129 -23 -183 -51 -429 -8 -71 -20 -168 -25 -215 -6 -47 -20 -166
-31 -265 -33 -302 -39 -348 -49 -405 -17 -92 -86 -155 -178 -163 -23 -3 -45
-7 -49 -11 -3 -3 106 -6 243 -5 139 1 235 4 217 9 -42 10 -79 34 -94 62 -12
23 -7 179 11 333 6 44 17 168 25 275 9 107 20 236 25 285 5 50 14 151 21 225
16 198 23 251 34 251 10 1 50 -84 422 -896 30 -66 70 -151 87 -190 18 -38 66
-143 107 -233 69 -153 90 -182 97 -136 9 56 44 150 127 339 86 196 398 903
468 1060 33 75 43 92 52 83 6 -5 36 -209 70 -463 8 -66 20 -145 25 -175 5 -30
11 -80 15 -110 3 -30 10 -84 15 -120 5 -36 16 -119 25 -185 35 -255 68 -373
139 -498 82 -144 194 -260 307 -317 81 -42 185 -60 333 -59 l141 2 -89 12
c-165 24 -294 90 -397 203 -141 153 -203 316 -255 662 -9 58 -20 128 -24 155
-9 56 -37 231 -50 315 -14 93 -41 260 -56 360 -17 106 -29 183 -49 315 -8 50
-19 119 -25 155 -5 36 -13 87 -18 114 -4 27 -11 49 -17 49 -8 -1 -64 -122
-234 -503 -183 -412 -285 -641 -296 -665 -7 -16 -34 -77 -60 -135 -26 -58 -56
-125 -67 -150 -12 -25 -29 -64 -39 -87 -30 -71 -31 -70 -124 132 -37 83 -88
193 -113 245 -24 52 -66 145 -94 205 -49 109 -130 283 -214 463 -24 51 -44 95
-44 97 0 16 -118 249 -155 306 -104 161 -251 279 -397 319 l-48 13 0 238 0
239 248 0 c222 0 251 -2 282 -19 46 -24 70 -58 85 -123 13 -51 13 -48 14 95 1
81 -3 147 -7 147 -4 0 -35 -8 -67 -17 -54 -16 -120 -18 -620 -18 -500 0 -568
2 -632 18 -40 9 -74 17 -77 17 -4 0 -6 -64 -5 -142z m629 -297 l0 -119 -27 -5
c-16 -3 -104 -5 -198 -4 l-170 2 0 103 c0 145 -5 142 221 142 l174 0 0 -119z
m-787 -55 c34 -14 84 -62 75 -71 -3 -3 -65 -4 -137 -3 l-132 3 32 33 c47 48
106 62 162 38z m785 -258 c1 -54 -1 -98 -5 -98 -165 -5 -341 -71 -465 -174
l-67 -56 -362 0 -362 0 5 84 c3 64 10 96 31 139 51 103 149 178 259 196 29 5
258 8 508 7 l455 -1 3 -97z m-639 -470 c-17 -28 -45 -92 -62 -142 -29 -84 -31
-101 -32 -226 0 -149 17 -229 76 -342 l29 -58 -315 0 -315 0 0 410 0 410 325
0 324 0 -30 -52z"/>
</g>
</svg>
